<?xml version="1.0" encoding="UTF-8" standalone="yes"?>
<svg width="20" height="20" viewBox="0 0 20 20" fill="none" xmlns="http://www.w3.org/2000/svg">
<path d="M19.8253 18.98L14.965 14.1197C16.2688 12.6208 17.0581 10.6652 17.0581 8.52772C17.0581 3.82262 13.2311 0 8.5304 0C3.8253 0 0.00268555 3.82705 0.00268555 8.52772C0.00268555 13.2284 3.82974 17.0554 8.5304 17.0554C10.6679 17.0554 12.6235 16.2661 14.1224 14.9623L18.9827 19.8226C19.098 19.9379 19.2532 20 19.404 20C19.5548 20 19.71 19.9424 19.8253 19.8226C20.0559 19.592 20.0559 19.2106 19.8253 18.98ZM1.19559 8.52772C1.19559 4.48337 4.48606 1.19734 8.52597 1.19734C12.5703 1.19734 15.8563 4.4878 15.8563 8.52772C15.8563 12.5676 12.5703 15.8625 8.52597 15.8625C4.48606 15.8625 1.19559 12.5721 1.19559 8.52772Z" fill="#737373"/>
</svg>
